<?xml version="1.0" encoding="utf-8"?>
<!-- Generator: Adobe Illustrator 16.0.0, SVG Export Plug-In . SVG Version: 6.00 Build 0)  -->
<!DOCTYPE svg PUBLIC "-//W3C//DTD SVG 1.1//EN" "http://www.w3.org/Graphics/SVG/1.1/DTD/svg11.dtd">
<svg version="1.1" id="Ebene_1" xmlns="http://www.w3.org/2000/svg" xmlns:xlink="http://www.w3.org/1999/xlink" x="0px" y="0px"
	 width="30px" height="30px" viewBox="0 0 30 30" enable-background="new 0 0 30 30" xml:space="preserve">
<path fill="#FFFFFF" stroke="#000000" stroke-miterlimit="10" d="M17.142,21.207"/>
<path fill="#FFFFFF" stroke="#000000" stroke-miterlimit="10" d="M5.209,6.268c0,0-1.405-4.021,4.07-2.762
	c0.823-2.374,7.509-3.036,8.042-0.573c2.744-0.783,5.118-0.396,5.555,2.608c4.343,0.582,5.039,7.8,2.665,8.77
	c2.083,2.375-0.121,6.341-3.04,5.885c-1.907,1.89-2.176,3.659-7.359,2.012c-3.924,2.084-6.056,0.533-6.541-2.229
	c-2.665-0.339-3.827,0.097-3.149-4.118C3.223,15,2.254,13.002,4.482,9.659C1.915,7.43,5.209,6.268,5.209,6.268z"/>
<line fill="#FFFFFF" stroke="#000000" stroke-width="1.0682" stroke-miterlimit="10" x1="12.909" y1="9.269" x2="13.176" y2="12.273"/>
<line fill="#FFFFFF" stroke="#000000" stroke-width="1.0442" stroke-miterlimit="10" x1="17.046" y1="9.402" x2="17.313" y2="12.273"/>
<polyline fill="#FFFFFF" stroke="#000000" stroke-miterlimit="10" points="13.909,23.06 14.234,27.294 11.328,28.118 "/>
<polyline fill="#FFFFFF" stroke="#000000" stroke-miterlimit="10" points="18.5,23 18.5,28 20.969,28.748 "/>
<path fill="#FFFFFF" stroke="#000000" stroke-width="0.25" stroke-miterlimit="10" d="M10.663,8.949c0,0-1.309-2.616,1.211-2.616"/>
<path fill="#FFFFFF" stroke="#000000" stroke-width="0.25" stroke-miterlimit="10" d="M12.781,4.862
	c1.374-0.581,3.476-1.647,4.532,0.291s2.573,0,2.421,1.647"/>
<path fill="#FFFFFF" stroke="#000000" stroke-width="0.25" stroke-miterlimit="10" d="M10.94,16.922
	c-0.242,0.533-0.678,3.488,0.727,3.149"/>
<path fill="#FFFFFF" stroke="#000000" stroke-width="0.25" stroke-miterlimit="10" d="M6.438,13.486c0,0-1.454-2.18,0.194-1.744
	s0.436-1.081,1.308-0.904"/>
<path fill="#FFFFFF" stroke="#000000" stroke-width="0.2737" stroke-miterlimit="10" d="M20.848,18.242
	c-0.404,0.451-3.014,1.935-3.259,0.234"/>
<path fill="#FFFFFF" stroke="#000000" stroke-width="0.25" stroke-miterlimit="10" d="M20.617,8.349c0,0,2.66,1.216,0.698,2.797"/>
<line fill="#FFFFFF" stroke="#000000" stroke-miterlimit="10" x1="12.605" y1="15" x2="15.803" y2="15.375"/>
</svg>
